<?xml version="1.0" encoding="UTF-8"?>
<svg version="1.1" xmlns="http://www.w3.org/2000/svg" width="64" height="64">
<path d="M0 0 C2.25862754 0.00316266 4.5159482 -0.02031421 6.77441406 -0.0456543 C8.20930824 -0.04792711 9.64420595 -0.04863087 11.07910156 -0.04760742 C12.38492188 -0.05058838 13.69074219 -0.05356934 15.03613281 -0.05664062 C18.26660156 0.31567383 18.26660156 0.31567383 19.94424438 1.48786926 C21.78392912 4.03074059 21.647438 5.80948118 21.65478516 8.93286133 C21.66424164 10.08415527 21.67369812 11.23544922 21.68344116 12.42163086 C21.67736847 13.66541504 21.67129578 14.90919922 21.66503906 16.19067383 C21.66790924 17.46668457 21.67077942 18.74269531 21.67373657 20.05737305 C21.67577991 22.75771499 21.67173548 25.45724464 21.65771484 28.1574707 C21.64062245 31.61786613 21.65046464 35.07756353 21.66843224 38.53793335 C21.68188172 41.83887188 21.67246401 45.13972619 21.66503906 48.44067383 C21.6741481 50.3063501 21.6741481 50.3063501 21.68344116 52.2097168 C21.67398468 53.36101074 21.6645282 54.51230469 21.65478516 55.69848633 C21.65239838 56.71313965 21.6500116 57.72779297 21.64755249 58.77319336 C21.26660156 61.31567383 21.26660156 61.31567383 19.94424438 63.14248657 C17.15918397 65.09009863 14.41652661 64.70546302 11.07910156 64.71411133 C10.0307312 64.7184166 10.0307312 64.7184166 8.96118164 64.72280884 C7.48518055 64.72484808 6.00915235 64.71932785 4.53320312 64.70678711 C2.27445018 64.69072962 0.01748638 64.70663853 -2.24121094 64.72583008 C-3.67611072 64.72384762 -5.11100939 64.72000388 -6.54589844 64.71411133 C-7.85171875 64.71072754 -9.15753906 64.70734375 -10.50292969 64.70385742 C-13.73339844 64.31567383 -13.73339844 64.31567383 -15.62011719 62.97827148 C-17.8899578 59.58844373 -17.84233786 56.57552503 -17.79589844 52.62817383 C-17.786875 51.63430664 -17.77785156 50.64043945 -17.76855469 49.61645508 C-17.75695312 48.85719727 -17.74535156 48.09793945 -17.73339844 47.31567383 C-18.53777344 47.17129883 -19.34214844 47.02692383 -20.17089844 46.87817383 C-22.73339844 46.31567383 -22.73339844 46.31567383 -23.73339844 45.31567383 C-23.84657128 42.96339064 -23.89756381 40.64155435 -23.90136719 38.28833008 C-23.90469559 37.58421494 -23.90802399 36.88009979 -23.91145325 36.15464783 C-23.91652499 34.66251277 -23.9188615 33.17036633 -23.91870117 31.67822266 C-23.92088602 29.39116775 -23.93903393 27.1045963 -23.95800781 24.81762695 C-23.96094198 23.37036298 -23.96292662 21.92309672 -23.96386719 20.47583008 C-23.9710527 19.78932877 -23.97823822 19.10282745 -23.98564148 18.39552307 C-23.96222213 13.54449752 -23.96222213 13.54449752 -21.73339844 11.31567383 C-20.41339844 11.31567383 -19.09339844 11.31567383 -17.73339844 11.31567383 C-17.69601563 10.68918945 -17.65863281 10.06270508 -17.62011719 9.41723633 C-17.554375 8.5999707 -17.48863281 7.78270508 -17.42089844 6.94067383 C-17.36289062 6.12856445 -17.30488281 5.31645508 -17.24511719 4.47973633 C-15.67004705 -2.1812473 -5.41375529 -0.01592281 0 0 Z " fill="#D4E6E9" transform="translate(28.7333984375,-0.315673828125)"/>
<path d="M0 0 C1.010625 0.0825 2.02125 0.165 3.0625 0.25 C3.7225 1.24 4.3825 2.23 5.0625 3.25 C7.88547624 3.72944836 7.88547624 3.72944836 11.0625 3.625 C12.135 3.63273438 13.2075 3.64046875 14.3125 3.6484375 C15.22 3.51695313 16.1275 3.38546875 17.0625 3.25 C17.7225 2.26 18.3825 1.27 19.0625 0.25 C22.125 0 22.125 0 25.0625 0.25 C26.74262342 1.93012342 26.18997339 4.00087192 26.19189453 6.3046875 C26.19504669 7.38250488 26.19819885 8.46032227 26.20144653 9.57080078 C26.1994223 10.74368652 26.19739807 11.91657227 26.1953125 13.125 C26.19674759 14.91719971 26.19674759 14.91719971 26.19821167 16.74560547 C26.19889371 19.2776698 26.19703778 21.80973588 26.19287109 24.34179688 C26.18752321 28.2331126 26.19281533 32.12431289 26.19921875 36.015625 C26.19855797 38.46875026 26.19727682 40.92187544 26.1953125 43.375 C26.19733673 44.54788574 26.19936096 45.72077148 26.20144653 46.92919922 C26.19829437 48.0070166 26.19514221 49.08483398 26.19189453 50.1953125 C26.19109894 51.14937988 26.19030334 52.10344727 26.18948364 53.08642578 C26.0625 55.25 26.0625 55.25 25.0625 56.25 C23.0019469 56.34993532 20.9379741 56.38080906 18.875 56.3828125 C17.61945312 56.38410156 16.36390625 56.38539062 15.0703125 56.38671875 C14.41321289 56.38462402 13.75611328 56.3825293 13.07910156 56.38037109 C11.07088665 56.37502234 9.06289541 56.38031691 7.0546875 56.38671875 C5.79914062 56.38542969 4.54359375 56.38414063 3.25 56.3828125 C2.08855469 56.38168457 0.92710938 56.38055664 -0.26953125 56.37939453 C-2.9375 56.25 -2.9375 56.25 -3.9375 55.25 C-4.08143457 50.91469082 -3.97962061 46.58842269 -3.9375 42.25 C1.6725 42.25 7.2825 42.25 13.0625 42.25 C13.3925 40.27 13.7225 38.29 14.0625 36.25 C16.7025 36.25 19.3425 36.25 22.0625 36.25 C22.0625 35.59 22.0625 34.93 22.0625 34.25 C19.4225 34.25 16.7825 34.25 14.0625 34.25 C14.0625 32.6 14.0625 30.95 14.0625 29.25 C16.7025 29.25 19.3425 29.25 22.0625 29.25 C22.0625 28.59 22.0625 27.93 22.0625 27.25 C19.4225 27.25 16.7825 27.25 14.0625 27.25 C14.0625 25.93 14.0625 24.61 14.0625 23.25 C15.196875 23.12625 16.33125 23.0025 17.5 22.875 C18.675625 22.66875 19.85125 22.4625 21.0625 22.25 C21.3925 21.59 21.7225 20.93 22.0625 20.25 C19.4225 20.25 16.7825 20.25 14.0625 20.25 C14.0625 18.93 14.0625 17.61 14.0625 16.25 C16.7025 16.25 19.3425 16.25 22.0625 16.25 C22.0625 14.6 22.0625 12.95 22.0625 11.25 C20.04427083 11.34765625 18.02604167 11.4453125 16.0078125 11.54296875 C15.36585937 11.44628906 14.72390625 11.34960938 14.0625 11.25 C13.4025 10.26 12.7425 9.27 12.0625 8.25 C9.28987745 7.86605333 6.71926472 7.64657752 3.9375 7.5625 C3.18339844 7.52833984 2.42929687 7.49417969 1.65234375 7.45898438 C-0.21041201 7.37645722 -2.07393326 7.31155289 -3.9375 7.25 C-3.98004356 5.25045254 -3.97830783 3.24958364 -3.9375 1.25 C-2.9375 0.25 -2.9375 0.25 0 0 Z " fill="#F7F9F9" transform="translate(19.9375,3.75)"/>
<path d="M0 0 C2.25862754 0.00316266 4.5159482 -0.02031421 6.77441406 -0.0456543 C8.20930824 -0.04792711 9.64420595 -0.04863087 11.07910156 -0.04760742 C12.38492188 -0.05058838 13.69074219 -0.05356934 15.03613281 -0.05664062 C18.26660156 0.31567383 18.26660156 0.31567383 19.94424438 1.48786926 C21.78392912 4.03074059 21.647438 5.80948118 21.65478516 8.93286133 C21.66424164 10.08415527 21.67369812 11.23544922 21.68344116 12.42163086 C21.67736847 13.66541504 21.67129578 14.90919922 21.66503906 16.19067383 C21.66790924 17.46668457 21.67077942 18.74269531 21.67373657 20.05737305 C21.67577991 22.75771499 21.67173548 25.45724464 21.65771484 28.1574707 C21.64062245 31.61786613 21.65046464 35.07756353 21.66843224 38.53793335 C21.68188172 41.83887188 21.67246401 45.13972619 21.66503906 48.44067383 C21.6741481 50.3063501 21.6741481 50.3063501 21.68344116 52.2097168 C21.67398468 53.36101074 21.6645282 54.51230469 21.65478516 55.69848633 C21.65239838 56.71313965 21.6500116 57.72779297 21.64755249 58.77319336 C21.26660156 61.31567383 21.26660156 61.31567383 19.94424438 63.14248657 C17.15918397 65.09009863 14.41652661 64.70546302 11.07910156 64.71411133 C10.0307312 64.7184166 10.0307312 64.7184166 8.96118164 64.72280884 C7.48518055 64.72484808 6.00915235 64.71932785 4.53320312 64.70678711 C2.27445018 64.69072962 0.01748638 64.70663853 -2.24121094 64.72583008 C-3.67611072 64.72384762 -5.11100939 64.72000388 -6.54589844 64.71411133 C-7.85171875 64.71072754 -9.15753906 64.70734375 -10.50292969 64.70385742 C-13.73339844 64.31567383 -13.73339844 64.31567383 -15.62011719 62.97827148 C-17.8899578 59.58844373 -17.84233786 56.57552503 -17.79589844 52.62817383 C-17.786875 51.63430664 -17.77785156 50.64043945 -17.76855469 49.61645508 C-17.75695312 48.85719727 -17.74535156 48.09793945 -17.73339844 47.31567383 C-16.08339844 47.31567383 -14.43339844 47.31567383 -12.73339844 47.31567383 C-12.40339844 51.27567383 -12.07339844 55.23567383 -11.73339844 59.31567383 C-2.49339844 59.31567383 6.74660156 59.31567383 16.26660156 59.31567383 C16.26660156 41.49567383 16.26660156 23.67567383 16.26660156 5.31567383 C14.28660156 5.31567383 12.30660156 5.31567383 10.26660156 5.31567383 C9.60660156 6.30567383 8.94660156 7.29567383 8.26660156 8.31567383 C5.51660156 8.71411133 5.51660156 8.71411133 2.26660156 8.69067383 C0.65785156 8.70227539 0.65785156 8.70227539 -0.98339844 8.71411133 C-1.89089844 8.58262695 -2.79839844 8.45114258 -3.73339844 8.31567383 C-4.39339844 7.32567383 -5.05339844 6.33567383 -5.73339844 5.31567383 C-8.81705715 5.06545813 -8.81705715 5.06545813 -11.73339844 5.31567383 C-12.06339844 7.29567383 -12.39339844 9.27567383 -12.73339844 11.31567383 C-11.60160156 11.2924707 -10.46980469 11.26926758 -9.30371094 11.24536133 C-7.82194669 11.22660482 -6.34017532 11.20840449 -4.85839844 11.19067383 C-4.11203125 11.17391602 -3.36566406 11.1571582 -2.59667969 11.13989258 C-0.64145382 11.12227793 1.31402178 11.21247194 3.26660156 11.31567383 C5.26660156 13.31567383 5.26660156 13.31567383 5.26660156 18.31567383 C-4.30339844 18.31567383 -13.87339844 18.31567383 -23.73339844 18.31567383 C-23.73339844 13.31567383 -23.73339844 13.31567383 -21.73339844 11.31567383 C-20.41339844 11.31567383 -19.09339844 11.31567383 -17.73339844 11.31567383 C-17.69601563 10.68918945 -17.65863281 10.06270508 -17.62011719 9.41723633 C-17.554375 8.5999707 -17.48863281 7.78270508 -17.42089844 6.94067383 C-17.36289062 6.12856445 -17.30488281 5.31645508 -17.24511719 4.47973633 C-15.67004705 -2.1812473 -5.41375529 -0.01592281 0 0 Z " fill="#8F9EAA" transform="translate(28.7333984375,-0.315673828125)"/>
<path d="M0 0 C1.20849609 0.00644531 2.41699219 0.01289062 3.66210938 0.01953125 C5.55606445 0.04466797 5.55606445 0.04466797 7.48828125 0.0703125 C8.76251953 0.07933594 10.03675781 0.08835938 11.34960938 0.09765625 C14.50018752 0.12125609 17.65039108 0.15418056 20.80078125 0.1953125 C21.29578125 2.1753125 21.29578125 2.1753125 21.80078125 4.1953125 C21.18203125 4.2984375 20.56328125 4.4015625 19.92578125 4.5078125 C17.43551641 5.07056623 17.43551641 5.07056623 15.80078125 8.1953125 C13.05078125 8.59375 13.05078125 8.59375 9.80078125 8.5703125 C8.19203125 8.58191406 8.19203125 8.58191406 6.55078125 8.59375 C5.64328125 8.46226563 4.73578125 8.33078125 3.80078125 8.1953125 C3.14078125 7.2053125 2.48078125 6.2153125 1.80078125 5.1953125 C-1.28287746 4.9450968 -1.28287746 4.9450968 -4.19921875 5.1953125 C-4.52921875 7.1753125 -4.85921875 9.1553125 -5.19921875 11.1953125 C-4.06742188 11.17210937 -2.935625 11.14890625 -1.76953125 11.125 C-0.287767 11.10624349 1.19400437 11.08804316 2.67578125 11.0703125 C3.42214844 11.05355469 4.16851563 11.03679688 4.9375 11.01953125 C6.89272586 11.0019166 8.84820146 11.09211061 10.80078125 11.1953125 C12.80078125 13.1953125 12.80078125 13.1953125 12.80078125 18.1953125 C3.23078125 18.1953125 -6.33921875 18.1953125 -16.19921875 18.1953125 C-16.19921875 13.1953125 -16.19921875 13.1953125 -14.19921875 11.1953125 C-12.87921875 11.1953125 -11.55921875 11.1953125 -10.19921875 11.1953125 C-10.16183594 10.56882812 -10.12445312 9.94234375 -10.0859375 9.296875 C-10.02019531 8.47960938 -9.95445313 7.66234375 -9.88671875 6.8203125 C-9.82871094 6.00820312 -9.77070313 5.19609375 -9.7109375 4.359375 C-8.53563454 -0.61099018 -4.20792695 -0.03951105 0 0 Z " fill="#A4ABB7" transform="translate(21.19921875,-0.1953125)"/>
<path d="M0 0 C2.64 0 5.28 0 8 0 C8 1.65 8 3.3 8 5 C5.36 5 2.72 5 0 5 C0 6.32 0 7.64 0 9 C2.64 9 5.28 9 8 9 C7.67 9.99 7.34 10.98 7 12 C4.69 12 2.38 12 0 12 C0 13.32 0 14.64 0 16 C2.64 16 5.28 16 8 16 C8 16.66 8 17.32 8 18 C5.36 18 2.72 18 0 18 C0 19.65 0 21.3 0 23 C2.64 23 5.28 23 8 23 C8 23.66 8 24.32 8 25 C5.36 25 2.72 25 0 25 C-0.33 26.98 -0.66 28.96 -1 31 C-9.58 31.33 -18.16 31.66 -27 32 C-27.66 30.68 -28.32 29.36 -29 28 C-21.08 27.67 -13.16 27.34 -5 27 C-4.67 19.41 -4.34 11.82 -4 4 C-12.25 4 -20.5 4 -29 4 C-29 3.67 -29 3.34 -29 3 C-19.43 3 -9.86 3 0 3 C0 2.01 0 1.02 0 0 Z " fill="#D8DFE5" transform="translate(34,15)"/>
<path d="M0 0 C1.67542976 0.28604898 3.34385343 0.61781233 5 1 C5.07417552 6.90817518 5.12861434 12.81607911 5.16479492 18.72460938 C5.17987826 20.73442303 5.20034772 22.74420379 5.22631836 24.75390625 C5.26272144 27.64331176 5.27973088 30.53228196 5.29296875 33.421875 C5.30845261 34.31992859 5.32393646 35.21798218 5.33988953 36.14324951 C5.34158031 42.41537533 5.34158031 42.41537533 3.48168945 45.59863281 C2.99273193 46.06108398 2.50377441 46.52353516 2 47 C-1.61413847 42.33143962 -1.40838809 38.21997884 -1.328125 32.578125 C-1.32625183 31.67753357 -1.32437866 30.77694214 -1.32244873 29.84906006 C-1.31574468 27.95288367 -1.30186302 26.05672073 -1.28125 24.16064453 C-1.24996017 21.24628976 -1.24026388 18.33247522 -1.234375 15.41796875 C-1.22521015 13.57551418 -1.21483604 11.73306514 -1.203125 9.890625 C-1.19887512 9.01464661 -1.19462524 8.13866821 -1.19024658 7.23614502 C-1.11718483 1.11718483 -1.11718483 1.11718483 0 0 Z " fill="#DBE8ED" transform="translate(54,9)"/>
<path d="M0 0 C1.60862915 0.06900513 1.60862915 0.06900513 3.24975586 0.1394043 C4.4118457 0.18645508 5.57393555 0.23350586 6.77124023 0.28198242 C8.59945313 0.37189453 8.59945313 0.37189453 10.46459961 0.46362305 C11.68727539 0.51196289 12.90995117 0.56030273 14.16967773 0.61010742 C23.25981865 1.00884209 23.25981865 1.00884209 24.40209961 2.15112305 C24.40209961 3.80112305 24.40209961 5.45112305 24.40209961 7.15112305 C14.83209961 7.15112305 5.26209961 7.15112305 -4.59790039 7.15112305 C-4.59790039 0.2674655 -4.59790039 0.2674655 0 0 Z " fill="#FC4C5A" transform="translate(9.597900390625,10.848876953125)"/>
<path d="M0 0 C1.010625 0.0825 2.02125 0.165 3.0625 0.25 C3.7225 1.24 4.3825 2.23 5.0625 3.25 C7.88547624 3.72944836 7.88547624 3.72944836 11.0625 3.625 C12.135 3.63273438 13.2075 3.64046875 14.3125 3.6484375 C15.22 3.51695313 16.1275 3.38546875 17.0625 3.25 C17.7225 2.26 18.3825 1.27 19.0625 0.25 C20.0525 0.25 21.0425 0.25 22.0625 0.25 C22.0625 3.55 22.0625 6.85 22.0625 10.25 C16.0078125 10.4453125 16.0078125 10.4453125 14.0625 10.25 C13.4025 9.59 12.7425 8.93 12.0625 8.25 C9.32815038 7.9436141 6.67970179 7.7386664 3.9375 7.625 C3.18339844 7.58632812 2.42929687 7.54765625 1.65234375 7.5078125 C-0.21053184 7.41348969 -2.07398255 7.33065338 -3.9375 7.25 C-3.98004356 5.25045254 -3.97830783 3.24958364 -3.9375 1.25 C-2.9375 0.25 -2.9375 0.25 0 0 Z " fill="#FEFEFE" transform="translate(19.9375,3.75)"/>
<path d="M0 0 C0.66 0 1.32 0 2 0 C2 12.87 2 25.74 2 39 C1.01 39 0.02 39 -1 39 C-1.02464849 33.60653012 -1.04283531 28.21309275 -1.05493164 22.81958008 C-1.05997231 20.98331125 -1.06680477 19.14704646 -1.07543945 17.31079102 C-1.08751672 14.67723599 -1.09323081 12.04373384 -1.09765625 9.41015625 C-1.10281754 8.58411392 -1.10797882 7.75807159 -1.11329651 6.90699768 C-1.11349205 4.93763632 -1.06204152 2.96838386 -1 1 C-0.67 0.67 -0.34 0.34 0 0 Z " fill="#E8ECF2" transform="translate(54,9)"/>
<path d="M0 0 C0.33 0 0.66 0 1 0 C1 4.29 1 8.58 1 13 C-3.62 13 -8.24 13 -13 13 C-13 12.01 -13 11.02 -13 10 C-13.66 9.67 -14.32 9.34 -15 9 C-13 7 -13 7 -9.9609375 6.8046875 C-8.18589844 6.83949219 -8.18589844 6.83949219 -6.375 6.875 C-4.59222656 6.90207031 -4.59222656 6.90207031 -2.7734375 6.9296875 C-1.85820312 6.95289063 -0.94296875 6.97609375 0 7 C0 4.69 0 2.38 0 0 Z " fill="#E5EBF0" transform="translate(29,19)"/>
<path d="M0 0 C7.59 0.33 15.18 0.66 23 1 C23 1.99 23 2.98 23 4 C14.75 4 6.5 4 -2 4 C-1.34 2.68 -0.68 1.36 0 0 Z " fill="#FD636E" transform="translate(7,11)"/>
<path d="M0 0 C0.33 0 0.66 0 1 0 C1.02689216 1.47906892 1.04634621 2.95827483 1.0625 4.4375 C1.07410156 5.26121094 1.08570312 6.08492187 1.09765625 6.93359375 C1 9 1 9 0 10 C-1.34267413 10.08631874 -2.68974322 10.10706473 -4.03515625 10.09765625 C-4.84404297 10.09443359 -5.65292969 10.09121094 -6.48632812 10.08789062 C-7.33646484 10.07951172 -8.18660156 10.07113281 -9.0625 10.0625 C-9.91650391 10.05798828 -10.77050781 10.05347656 -11.65039062 10.04882812 C-13.76695663 10.03700373 -15.88348685 10.01906769 -18 10 C-17.67 9.34 -17.34 8.68 -17 8 C-15.66923011 7.65657551 -14.33568021 7.32380126 -13 7 C-12.34 6.34 -11.68 5.68 -11 5 C-11 5.66 -11 6.32 -11 7 C-7.37 7 -3.74 7 0 7 C0 4.69 0 2.38 0 0 Z " fill="#E3EBF0" transform="translate(29,33)"/>
<path d="M0 0 C1.65 0 3.3 0 5 0 C5 3.63 5 7.26 5 11 C4.67 10.34 4.34 9.68 4 9 C2.68 9.33 1.36 9.66 0 10 C0 6.7 0 3.4 0 0 Z " fill="#A3ADBB" transform="translate(11,47)"/>
<path d="M0 0 C2.64 0 5.28 0 8 0 C8 1.65 8 3.3 8 5 C5.36 5 2.72 5 0 5 C0 3.35 0 1.7 0 0 Z " fill="#FDFDFD" transform="translate(34,33)"/>
<path d="M0 0 C2.64 0 5.28 0 8 0 C8 1.65 8 3.3 8 5 C5.36 5 2.72 5 0 5 C0 3.35 0 1.7 0 0 Z " fill="#068AFC" transform="translate(34,15)"/>
<path d="M0 0 C1.98 0 3.96 0 6 0 C5.25 5.75 5.25 5.75 3 8 C0 3.375 0 3.375 0 0 Z " fill="#D2DEE5" transform="translate(53,48)"/>
<path d="M0 0 C2.64 0 5.28 0 8 0 C8 1.32 8 2.64 8 4 C5.36 4 2.72 4 0 4 C0 2.68 0 1.36 0 0 Z " fill="#FFFFFF" transform="translate(34,20)"/>
<path d="M0 0 C1.65 0 3.3 0 5 0 C5 1.65 5 3.3 5 5 C3.35 5 1.7 5 0 5 C0 3.35 0 1.7 0 0 Z " fill="#38D9BD" transform="translate(37,51)"/>
<path d="M0 0 C1.65 0 3.3 0 5 0 C5 1.65 5 3.3 5 5 C3.35 5 1.7 5 0 5 C0 3.35 0 1.7 0 0 Z " fill="#FD5F6B" transform="translate(20,51)"/>
<path d="M0 0 C1.65 0 3.3 0 5 0 C4.67 1.65 4.34 3.3 4 5 C2.68 5 1.36 5 0 5 C0 3.35 0 1.7 0 0 Z " fill="#FED970" transform="translate(29,51)"/>
</svg>
